<svg xmlns="http://www.w3.org/2000/svg" viewBox="0 0 1365 1365" role="img" aria-label="Logo" width="1365" height="1365"><path d="M 657.0 501.5 C 653.7 501.7, 650.3 501.9, 647.0 502.4 C 643.7 502.9, 640.3 503.6, 637.0 504.3 C 633.7 505.1, 630.3 505.9, 627.0 506.9 C 623.7 507.9, 620.3 509.0, 617.0 510.3 C 613.7 511.6, 610.3 513.0, 607.0 514.5 C 603.7 516.1, 600.3 518.0, 597.1 519.7 C 593.9 521.5, 590.9 523.3, 587.9 525.2 C 585.0 527.1, 582.1 528.8, 579.3 531.0 C 576.5 533.2, 573.6 535.6, 571.1 538.5 C 568.6 541.3, 566.1 544.8, 564.4 548.0 C 562.7 551.3, 561.6 554.7, 561.0 558.0 C 560.4 561.3, 560.3 564.7, 560.8 568.0 C 561.3 571.3, 562.2 574.7, 563.9 578.0 C 565.5 581.3, 568.0 584.8, 570.7 587.8 C 573.3 590.8, 576.7 593.6, 579.8 596.0 C 582.9 598.4, 586.0 600.2, 589.2 602.1 C 592.4 604.0, 595.7 605.7, 598.9 607.4 C 602.1 609.2, 605.1 610.9, 608.3 612.6 C 611.5 614.3, 614.7 616.0, 618.0 617.7 C 621.3 619.4, 624.7 621.2, 628.0 622.9 C 631.3 624.6, 634.7 626.3, 638.0 628.0 C 641.3 629.8, 644.7 631.6, 648.0 633.3 C 651.3 635.1, 654.7 636.8, 658.0 638.5 C 661.3 640.2, 664.7 642.0, 668.0 643.7 C 671.3 645.5, 674.7 647.2, 678.0 649.0 C 681.3 650.8, 684.7 652.6, 688.0 654.4 C 691.3 656.2, 694.7 658.0, 698.0 659.8 C 701.3 661.6, 704.7 663.4, 708.0 665.2 C 711.3 667.0, 714.7 668.8, 718.0 670.5 C 721.3 672.3, 724.7 674.1, 728.0 675.9 C 731.3 677.6, 734.6 679.3, 737.8 681.0 C 741.0 682.8, 744.0 684.5, 747.2 686.2 C 750.4 688.0, 753.7 689.8, 757.0 691.6 C 760.3 693.5, 763.7 695.4, 767.0 697.2 C 770.2 699.0, 773.4 700.8, 776.6 702.6 C 779.8 704.4, 782.8 706.2, 786.1 708.2 C 789.3 710.2, 792.7 712.2, 796.0 714.4 C 799.3 716.5, 802.7 718.7, 806.0 721.1 C 809.3 723.6, 812.8 726.3, 815.9 729.1 C 819.0 731.9, 822.0 734.9, 824.6 737.9 C 827.1 740.9, 829.2 743.9, 831.0 747.1 C 832.8 750.3, 834.3 753.7, 835.3 757.0 C 836.3 760.3, 836.7 763.7, 836.8 767.0 C 836.9 770.3, 836.7 773.7, 836.0 777.0 C 835.2 780.3, 834.1 783.7, 832.3 787.0 C 830.5 790.3, 828.0 793.8, 825.4 797.0 C 822.7 800.2, 819.2 803.6, 816.1 806.4 C 813.1 809.2, 810.0 811.4, 807.0 813.6 C 804.0 815.7, 801.0 817.3, 797.9 819.2 C 794.7 821.0, 791.3 822.8, 788.0 824.6 C 784.7 826.5, 781.3 828.4, 778.0 830.3 C 774.7 832.2, 771.3 834.0, 768.0 835.9 C 764.7 837.7, 761.4 839.6, 758.2 841.4 C 755.0 843.2, 752.0 844.8, 748.8 846.6 C 745.6 848.3, 742.3 850.1, 739.0 852.0 C 735.7 853.8, 732.3 855.7, 729.0 857.5 C 725.7 859.3, 722.3 860.9, 719.0 862.7 C 715.7 864.5, 712.3 866.4, 709.0 868.2 C 705.7 870.0, 702.3 871.8, 699.0 873.5 C 695.7 875.3, 692.3 877.1, 689.0 878.8 C 685.7 880.5, 682.3 882.2, 679.0 884.0 C 675.7 885.7, 672.3 887.4, 669.0 889.0 C 665.7 890.7, 662.3 892.4, 659.0 893.8 C 655.7 895.3, 652.3 896.6, 649.0 897.8 C 645.7 898.9, 642.3 900.0, 639.0 900.9 C 635.7 901.8, 632.3 902.4, 629.0 903.0 C 625.7 903.6, 622.3 904.3, 619.0 904.6 C 615.7 904.9, 612.3 905.0, 609.0 904.9 C 605.7 904.8, 602.3 904.5, 599.0 904.1 C 595.7 903.6, 592.3 902.9, 589.0 902.1 C 585.7 901.4, 582.3 900.5, 579.0 899.3 C 575.7 898.2, 572.3 896.9, 569.0 895.2 C 565.8 893.4, 562.2 891.3, 559.4 888.8 C 556.6 886.2, 553.6 883.0, 552.0 879.9 C 550.4 876.8, 549.7 873.3, 549.7 870.0 C 549.8 866.7, 551.2 863.3, 552.2 860.0 C 553.2 856.7, 555.1 853.3, 555.7 850.0 C 556.4 846.7, 556.9 843.3, 556.2 840.0 C 555.6 836.8, 554.1 833.3, 552.0 830.5 C 549.9 827.7, 546.6 825.4, 543.6 823.3 C 540.6 821.2, 537.2 819.7, 534.0 818.0 C 530.7 816.3, 527.3 814.6, 524.0 812.9 C 520.7 811.2, 517.3 809.4, 514.0 807.6 C 510.7 805.9, 507.3 804.2, 504.0 802.4 C 500.7 800.7, 497.3 798.8, 494.0 797.0 C 490.7 795.2, 487.3 793.5, 484.0 791.8 C 480.7 790.0, 477.3 788.4, 474.0 786.7 C 470.7 785.0, 467.3 783.3, 464.0 781.6 C 460.8 779.9, 457.6 778.2, 454.4 776.5 C 451.2 774.8, 448.2 773.2, 444.9 771.5 C 441.7 769.8, 438.3 768.0, 435.0 766.3 C 431.7 764.5, 428.3 762.7, 425.0 761.0 C 421.7 759.3, 418.3 757.6, 415.0 756.0 C 411.7 754.4, 408.3 752.7, 405.0 751.3 C 401.7 749.9, 398.3 748.5, 395.0 747.5 C 391.7 746.6, 388.3 745.8, 385.0 745.5 C 381.7 745.1, 378.3 745.1, 375.0 745.4 C 371.7 745.8, 368.3 746.4, 365.1 747.5 C 361.8 748.7, 358.6 750.4, 355.6 752.4 C 352.6 754.5, 349.5 757.3, 347.0 760.1 C 344.4 762.8, 342.3 765.9, 340.3 768.9 C 338.3 771.9, 336.7 774.9, 335.1 778.1 C 333.5 781.3, 332.1 784.7, 330.7 788.0 C 329.2 791.3, 327.9 794.7, 326.6 798.0 C 325.3 801.3, 324.1 804.7, 322.8 808.0 C 321.6 811.3, 320.2 814.7, 319.1 818.0 C 318.0 821.3, 317.0 824.7, 316.2 828.0 C 315.5 831.3, 314.8 834.7, 314.4 838.0 C 314.1 841.3, 314.0 844.7, 314.1 848.0 C 314.2 851.3, 314.6 854.7, 315.3 858.0 C 316.0 861.3, 317.2 864.7, 318.5 868.0 C 319.8 871.3, 321.5 874.7, 323.2 878.0 C 325.0 881.3, 326.9 884.7, 329.1 888.0 C 331.2 891.3, 333.5 894.7, 335.9 898.0 C 338.4 901.3, 341.2 904.7, 343.9 908.0 C 346.7 911.3, 349.7 914.7, 352.5 917.9 C 355.2 921.0, 357.9 924.0, 360.6 927.0 C 363.4 929.9, 366.2 932.8, 369.0 935.5 C 371.8 938.4, 374.6 941.1, 377.4 943.8 C 380.1 946.4, 382.7 949.0, 385.5 951.5 C 388.3 954.1, 391.2 956.6, 394.3 959.2 C 397.3 961.8, 400.7 964.7, 403.8 967.2 C 407.0 969.7, 410.0 972.0, 413.1 974.3 C 416.2 976.6, 419.2 978.8, 422.4 981.0 C 425.5 983.2, 428.8 985.5, 432.0 987.7 C 435.1 989.9, 438.3 992.2, 441.5 994.2 C 444.6 996.3, 447.7 998.2, 450.9 1000.1 C 454.0 1002.0, 457.0 1003.9, 460.2 1005.8 C 463.4 1007.6, 466.7 1009.6, 470.0 1011.4 C 473.3 1013.3, 476.7 1015.1, 480.0 1016.8 C 483.3 1018.6, 486.7 1020.4, 490.0 1022.0 C 493.3 1023.7, 496.7 1025.2, 500.0 1026.7 C 503.3 1028.2, 506.7 1029.5, 510.0 1030.8 C 513.3 1032.1, 516.7 1033.4, 520.0 1034.5 C 523.3 1035.7, 526.7 1036.9, 530.0 1037.9 C 533.3 1038.9, 536.7 1039.8, 540.0 1040.7 C 543.3 1041.7, 546.7 1042.5, 550.0 1043.4 C 553.3 1044.2, 556.7 1044.9, 560.0 1045.6 C 563.3 1046.3, 566.7 1047.1, 570.0 1047.7 C 573.3 1048.3, 576.7 1048.8, 580.0 1049.2 C 583.3 1049.7, 586.7 1050.1, 590.0 1050.5 C 593.3 1051.0, 596.7 1051.5, 600.0 1051.9 C 603.3 1052.3, 606.7 1052.5, 610.0 1052.8 C 613.3 1053.0, 616.7 1053.4, 620.0 1053.5 C 623.3 1053.7, 626.7 1053.8, 630.0 1053.7 C 633.3 1053.6, 636.7 1053.2, 640.0 1052.9 C 643.3 1052.6, 646.7 1052.4, 650.0 1052.0 C 653.3 1051.6, 656.7 1051.0, 660.0 1050.5 C 663.3 1050.0, 666.7 1049.6, 670.0 1049.1 C 673.3 1048.5, 676.7 1048.0, 680.0 1047.3 C 683.3 1046.6, 686.7 1045.8, 690.0 1044.9 C 693.3 1044.0, 696.7 1043.0, 700.0 1042.0 C 703.3 1041.0, 706.7 1039.9, 710.0 1038.8 C 713.3 1037.7, 716.7 1036.5, 720.0 1035.2 C 723.3 1033.9, 726.7 1032.5, 730.0 1031.1 C 733.3 1029.6, 736.7 1028.0, 740.0 1026.3 C 743.3 1024.6, 746.5 1022.8, 749.7 1021.0 C 752.9 1019.3, 755.9 1017.5, 759.1 1015.8 C 762.4 1014.0, 765.7 1012.2, 769.0 1010.4 C 772.3 1008.6, 775.7 1006.7, 779.0 1004.9 C 782.3 1003.0, 785.7 1001.3, 789.0 999.5 C 792.3 997.7, 795.7 995.8, 799.0 993.9 C 802.3 992.1, 805.7 990.2, 809.0 988.3 C 812.3 986.4, 815.7 984.4, 819.0 982.5 C 822.3 980.6, 825.7 978.7, 829.0 976.9 C 832.2 975.1, 835.4 973.4, 838.5 971.6 C 841.7 969.9, 844.8 968.2, 848.1 966.4 C 851.3 964.6, 854.7 962.8, 858.0 961.0 C 861.3 959.2, 864.7 957.3, 868.0 955.4 C 871.3 953.5, 874.7 951.6, 878.0 949.8 C 881.3 947.9, 884.7 946.1, 887.9 944.3 C 891.2 942.5, 894.3 940.7, 897.5 938.9 C 900.6 937.1, 903.8 935.3, 907.0 933.4 C 910.3 931.6, 913.7 929.7, 917.0 927.8 C 920.3 925.9, 923.6 924.1, 926.8 922.1 C 929.9 920.1, 932.7 918.2, 935.8 916.0 C 938.8 913.9, 941.9 911.6, 945.0 909.3 C 948.1 906.9, 951.2 904.5, 954.4 901.8 C 957.6 899.1, 960.8 896.0, 964.0 892.9 C 967.2 889.8, 970.6 886.3, 973.5 883.0 C 976.4 879.8, 978.9 876.6, 981.3 873.4 C 983.7 870.2, 985.8 867.2, 987.9 863.9 C 989.9 860.7, 991.9 857.3, 993.7 854.0 C 995.5 850.7, 997.2 847.3, 998.7 844.0 C 1000.3 840.7, 1001.6 837.3, 1002.8 834.0 C 1004.1 830.7, 1005.1 827.3, 1006.0 824.0 C 1007.0 820.7, 1007.7 817.3, 1008.5 814.0 C 1009.2 810.7, 1009.8 807.3, 1010.3 804.0 C 1010.8 800.7, 1011.3 797.3, 1011.5 794.0 C 1011.8 790.7, 1011.9 787.3, 1012.0 784.0 C 1012.0 780.7, 1012.0 777.3, 1012.0 774.0 C 1012.0 770.7, 1012.0 767.3, 1011.8 764.0 C 1011.5 760.7, 1011.1 757.3, 1010.6 754.0 C 1010.0 750.7, 1009.3 747.3, 1008.6 744.0 C 1007.8 740.7, 1007.0 737.3, 1006.1 734.0 C 1005.2 730.7, 1004.1 727.3, 1002.9 724.0 C 1001.8 720.7, 1000.5 717.3, 999.1 714.0 C 997.7 710.7, 996.1 707.3, 994.6 704.1 C 993.0 700.8, 991.5 697.7, 989.9 694.6 C 988.2 691.6, 986.7 688.7, 984.8 685.6 C 982.8 682.5, 980.7 679.2, 978.4 676.0 C 976.1 672.7, 973.7 669.3, 971.0 666.0 C 968.4 662.7, 965.6 659.3, 962.6 656.0 C 959.6 652.7, 956.2 649.3, 953.0 646.1 C 949.7 642.9, 946.3 639.6, 943.0 636.7 C 939.8 633.9, 936.6 631.2, 933.5 628.8 C 930.4 626.3, 927.6 624.2, 924.6 622.0 C 921.5 619.8, 918.3 617.6, 915.1 615.6 C 912.0 613.6, 908.9 611.7, 905.7 609.8 C 902.5 607.8, 899.3 606.0, 896.0 604.1 C 892.7 602.3, 889.3 600.4, 886.0 598.6 C 882.7 596.8, 879.3 595.0, 876.0 593.2 C 872.7 591.4, 869.3 589.6, 866.0 587.8 C 862.7 586.0, 859.4 584.3, 856.2 582.5 C 853.0 580.8, 850.0 579.1, 846.8 577.3 C 843.6 575.5, 840.3 573.8, 837.0 572.0 C 833.7 570.2, 830.3 568.3, 827.0 566.5 C 823.7 564.7, 820.3 563.0, 817.0 561.2 C 813.7 559.4, 810.3 557.7, 807.0 555.9 C 803.7 554.1, 800.3 552.3, 797.0 550.5 C 793.7 548.6, 790.3 546.8, 787.0 545.0 C 783.7 543.2, 780.3 541.4, 777.0 539.6 C 773.7 537.8, 770.3 536.0, 767.0 534.3 C 763.7 532.5, 760.3 530.8, 757.0 529.1 C 753.7 527.4, 750.3 525.7, 747.0 524.0 C 743.7 522.3, 740.3 520.7, 737.0 519.0 C 733.7 517.4, 730.3 515.6, 727.0 514.1 C 723.7 512.6, 720.3 511.1, 717.0 509.9 C 713.7 508.7, 710.3 507.7, 707.0 506.8 C 703.7 505.8, 700.3 505.0, 697.0 504.3 C 693.7 503.6, 690.3 502.9, 687.0 502.4 C 683.7 501.9, 680.3 501.7, 677.0 501.5 C 673.7 501.3, 670.3 501.1, 667.0 501.1 C 663.7 501.1, 660.3 501.3, 657.0 501.5 Z M 735.0 274.5 C 732.3 274.7, 728.3 275.1, 725.0 275.6 C 721.7 276.0, 718.3 276.6, 715.0 277.2 C 711.7 277.7, 708.3 278.2, 705.0 278.9 C 701.7 279.6, 698.3 280.5, 695.0 281.4 C 691.7 282.2, 688.3 283.0, 685.0 283.9 C 681.7 284.9, 678.3 286.1, 675.0 287.2 C 671.7 288.4, 668.3 289.5, 665.0 290.8 C 661.7 292.1, 658.3 293.4, 655.0 294.8 C 651.7 296.2, 648.3 297.7, 645.0 299.2 C 641.7 300.7, 638.3 302.4, 635.0 304.0 C 631.7 305.6, 628.3 307.3, 625.0 309.0 C 621.7 310.7, 618.3 312.6, 615.0 314.4 C 611.7 316.2, 608.3 318.1, 605.0 319.9 C 601.7 321.8, 598.3 323.7, 595.0 325.6 C 591.7 327.5, 588.3 329.4, 585.0 331.3 C 581.7 333.2, 578.3 335.1, 575.0 337.0 C 571.7 338.9, 568.3 340.8, 565.0 342.7 C 561.7 344.6, 558.3 346.5, 555.0 348.4 C 551.7 350.3, 548.3 352.0, 545.0 353.9 C 541.7 355.8, 538.3 357.8, 535.0 359.8 C 531.7 361.7, 528.3 363.8, 525.0 365.7 C 521.7 367.7, 518.3 369.7, 515.0 371.6 C 511.7 373.5, 508.3 375.3, 505.0 377.2 C 501.7 379.1, 498.3 381.1, 495.0 383.0 C 491.7 385.0, 488.3 387.0, 485.0 389.0 C 481.7 391.0, 478.3 393.0, 475.0 395.0 C 471.7 397.0, 468.3 399.0, 465.0 401.0 C 461.8 403.0, 458.6 404.9, 455.4 406.8 C 452.2 408.7, 449.1 410.6, 445.9 412.5 C 442.8 414.4, 439.5 416.3, 436.3 418.4 C 433.2 420.4, 430.1 422.5, 426.9 424.8 C 423.7 427.0, 420.4 429.5, 417.2 431.9 C 414.0 434.4, 411.0 436.6, 407.8 439.3 C 404.6 442.0, 401.2 445.0, 398.0 448.1 C 394.8 451.2, 391.4 454.7, 388.4 458.0 C 385.4 461.3, 382.5 464.7, 380.0 467.9 C 377.5 471.1, 375.4 474.1, 373.4 477.1 C 371.3 480.2, 369.4 483.1, 367.5 486.2 C 365.6 489.4, 363.6 492.7, 361.9 496.0 C 360.2 499.3, 358.8 502.7, 357.4 506.0 C 356.0 509.3, 354.8 512.7, 353.6 516.0 C 352.5 519.3, 351.4 522.7, 350.4 526.0 C 349.5 529.3, 348.7 532.7, 348.0 536.0 C 347.3 539.3, 346.6 542.7, 346.1 546.0 C 345.6 549.3, 345.3 552.7, 345.1 556.0 C 345.0 559.3, 345.0 562.7, 345.0 566.0 C 345.0 569.3, 345.0 572.7, 345.0 576.0 C 345.1 579.3, 345.0 582.7, 345.3 586.0 C 345.5 589.3, 346.0 592.7, 346.6 596.0 C 347.1 599.3, 347.8 602.7, 348.5 606.0 C 349.3 609.3, 350.1 612.7, 351.0 616.0 C 352.0 619.3, 352.9 622.7, 354.1 626.0 C 355.2 629.3, 356.5 632.7, 357.9 636.0 C 359.2 639.3, 360.8 642.7, 362.4 646.0 C 364.1 649.3, 365.9 652.7, 367.9 656.0 C 369.9 659.3, 372.2 662.7, 374.4 665.8 C 376.6 669.0, 378.7 671.9, 381.0 674.9 C 383.3 677.8, 385.5 680.5, 388.2 683.5 C 390.9 686.5, 394.0 689.8, 397.0 692.7 C 399.9 695.6, 403.0 698.3, 406.1 700.8 C 409.1 703.4, 412.0 705.6, 415.2 708.0 C 418.3 710.3, 421.7 712.7, 425.0 714.9 C 428.2 717.1, 431.5 719.3, 434.7 721.2 C 437.9 723.2, 440.9 724.9, 444.1 726.7 C 447.4 728.6, 450.7 730.4, 454.0 732.1 C 457.3 733.9, 460.7 735.7, 464.0 737.5 C 467.3 739.2, 470.7 740.9, 474.0 742.5 C 477.3 744.2, 480.7 745.9, 484.0 747.5 C 487.3 749.2, 490.7 750.9, 494.0 752.6 C 497.3 754.3, 500.7 756.1, 504.0 757.9 C 507.3 759.6, 510.7 761.3, 514.0 763.0 C 517.3 764.7, 520.7 766.3, 524.0 768.0 C 527.3 769.7, 530.7 771.3, 534.0 773.0 C 537.3 774.7, 540.7 776.3, 544.0 778.0 C 547.3 779.7, 550.7 781.3, 554.0 783.0 C 557.3 784.7, 560.7 786.3, 564.0 788.0 C 567.3 789.8, 570.7 791.5, 574.0 793.2 C 577.3 795.0, 580.7 796.5, 584.0 798.3 C 587.3 800.0, 590.7 801.9, 594.0 803.6 C 597.3 805.3, 600.7 807.0, 604.0 808.6 C 607.3 810.3, 610.7 812.0, 614.0 813.6 C 617.3 815.1, 620.7 816.6, 624.0 818.0 C 627.3 819.4, 630.7 820.8, 634.0 822.0 C 637.3 823.1, 640.7 824.2, 644.0 825.1 C 647.3 826.1, 650.7 827.1, 654.0 827.8 C 657.3 828.5, 660.7 828.9, 664.0 829.3 C 667.3 829.6, 670.7 829.8, 674.0 829.9 C 677.3 830.0, 680.7 830.0, 684.0 830.0 C 687.3 830.0, 690.7 830.0, 694.0 830.0 C 697.3 829.9, 700.7 829.8, 704.0 829.5 C 707.3 829.2, 710.7 828.8, 714.0 828.1 C 717.3 827.5, 720.7 826.7, 724.0 825.8 C 727.3 824.9, 730.7 823.8, 734.0 822.6 C 737.3 821.4, 740.7 820.1, 744.0 818.6 C 747.3 817.1, 750.7 815.4, 754.0 813.7 C 757.3 812.0, 760.7 810.2, 763.9 808.4 C 767.2 806.5, 770.3 804.8, 773.5 802.6 C 776.6 800.4, 779.9 798.0, 782.7 795.2 C 785.5 792.5, 788.4 789.2, 790.4 786.1 C 792.4 783.0, 793.9 779.9, 794.8 776.7 C 795.7 773.5, 795.9 770.3, 795.7 767.0 C 795.5 763.7, 794.9 760.3, 793.7 757.0 C 792.5 753.8, 790.8 750.4, 788.5 747.4 C 786.3 744.3, 783.1 741.3, 780.2 738.8 C 777.2 736.2, 774.1 734.1, 770.9 732.0 C 767.7 729.9, 764.3 728.1, 761.0 726.2 C 757.7 724.3, 754.3 722.4, 751.0 720.6 C 747.7 718.7, 744.4 716.9, 741.1 715.1 C 737.9 713.2, 734.9 711.5, 731.7 709.7 C 728.5 707.9, 725.3 706.1, 722.0 704.3 C 718.7 702.5, 715.3 700.6, 712.0 698.8 C 708.7 697.0, 705.5 695.3, 702.3 693.5 C 699.1 691.7, 696.1 689.8, 692.9 688.0 C 689.6 686.2, 686.3 684.3, 683.0 682.5 C 679.8 680.7, 676.5 678.9, 673.3 677.1 C 670.2 675.3, 667.1 673.5, 664.0 671.7 C 660.9 670.0, 657.8 668.2, 654.7 666.5 C 651.6 664.7, 648.4 662.9, 645.3 661.1 C 642.2 659.3, 639.1 657.5, 636.0 655.7 C 632.9 654.0, 629.8 652.2, 626.7 650.5 C 623.5 648.7, 620.3 646.9, 617.0 645.1 C 613.7 643.2, 610.3 641.4, 607.0 639.5 C 603.7 637.5, 600.3 635.5, 597.0 633.6 C 593.7 631.7, 590.3 629.8, 587.0 627.8 C 583.7 625.9, 580.3 623.9, 577.0 621.9 C 573.7 620.0, 570.3 618.1, 567.0 616.1 C 563.7 614.2, 560.4 612.3, 557.2 610.4 C 554.0 608.4, 551.0 606.5, 547.8 604.2 C 544.6 601.8, 541.2 599.2, 538.2 596.3 C 535.1 593.5, 531.9 590.2, 529.5 587.0 C 527.1 583.7, 525.1 580.3, 523.6 577.0 C 522.1 573.7, 521.2 570.3, 520.7 567.0 C 520.2 563.7, 520.1 560.3, 520.4 557.0 C 520.8 553.7, 521.5 550.3, 522.8 547.0 C 524.0 543.7, 525.7 540.4, 527.7 537.3 C 529.8 534.2, 532.3 531.4, 535.0 528.7 C 537.8 525.9, 540.9 523.3, 544.1 520.9 C 547.2 518.4, 550.7 516.1, 554.0 513.9 C 557.3 511.8, 560.7 509.9, 564.0 508.0 C 567.3 506.1, 570.6 504.2, 573.8 502.3 C 577.0 500.5, 580.0 498.8, 583.2 496.9 C 586.4 495.1, 589.7 493.3, 593.0 491.4 C 596.3 489.6, 599.6 487.6, 602.8 485.8 C 606.0 484.0, 609.0 482.3, 612.2 480.5 C 615.4 478.7, 618.7 476.9, 622.0 475.0 C 625.2 473.1, 628.5 471.1, 631.7 469.2 C 634.9 467.4, 637.9 465.6, 641.1 463.7 C 644.4 461.9, 647.7 460.1, 651.0 458.2 C 654.3 456.3, 657.7 454.3, 661.0 452.4 C 664.3 450.5, 667.7 448.7, 671.0 446.9 C 674.3 445.0, 677.7 443.2, 681.0 441.3 C 684.3 439.5, 687.7 437.6, 690.9 435.8 C 694.2 434.0, 697.2 432.3, 700.4 430.6 C 703.6 428.9, 706.8 427.3, 710.0 425.8 C 713.3 424.2, 716.7 422.8, 720.0 421.4 C 723.3 420.0, 726.7 418.7, 730.0 417.6 C 733.3 416.4, 736.7 415.4, 740.0 414.6 C 743.3 413.8, 746.7 413.2, 750.0 412.8 C 753.3 412.3, 756.7 412.1, 760.0 412.1 C 763.3 412.1, 766.7 412.2, 770.0 412.6 C 773.3 412.9, 776.7 413.4, 780.0 414.2 C 783.3 415.0, 786.8 415.8, 790.0 417.4 C 793.2 419.1, 796.9 421.6, 799.3 424.4 C 801.8 427.1, 803.8 430.7, 804.7 434.0 C 805.5 437.3, 805.1 440.7, 804.4 444.0 C 803.8 447.3, 801.9 450.7, 801.0 454.0 C 800.0 457.3, 798.6 460.7, 798.6 464.0 C 798.5 467.3, 799.0 470.8, 800.5 473.9 C 802.0 477.0, 804.8 480.0, 807.5 482.6 C 810.1 485.1, 813.6 487.1, 816.7 489.1 C 819.9 491.1, 822.9 492.8, 826.1 494.6 C 829.4 496.3, 832.7 498.1, 836.0 499.9 C 839.3 501.6, 842.7 503.3, 846.0 505.1 C 849.3 506.8, 852.7 508.5, 856.0 510.3 C 859.3 512.0, 862.7 513.8, 866.0 515.5 C 869.3 517.3, 872.7 519.1, 876.0 520.8 C 879.3 522.5, 882.7 524.1, 886.0 525.8 C 889.3 527.4, 892.7 529.1, 896.0 530.8 C 899.3 532.4, 902.7 534.1, 906.0 535.8 C 909.3 537.4, 912.7 539.2, 916.0 540.8 C 919.3 542.4, 922.7 544.0, 926.0 545.5 C 929.3 547.1, 932.7 548.6, 936.0 550.0 C 939.3 551.4, 942.7 552.7, 946.0 553.7 C 949.3 554.7, 952.7 555.4, 956.0 555.9 C 959.3 556.3, 962.7 556.6, 966.0 556.4 C 969.3 556.2, 972.7 555.6, 976.0 554.6 C 979.3 553.6, 982.7 552.3, 986.0 550.5 C 989.2 548.8, 992.5 546.5, 995.4 544.1 C 998.2 541.6, 1000.8 538.8, 1003.1 535.8 C 1005.5 532.8, 1007.5 529.3, 1009.5 526.0 C 1011.5 522.7, 1013.2 519.3, 1015.0 516.0 C 1016.8 512.7, 1018.5 509.3, 1020.1 506.0 C 1021.7 502.7, 1023.2 499.3, 1024.6 496.0 C 1025.9 492.7, 1027.2 489.3, 1028.2 486.0 C 1029.2 482.7, 1030.1 479.3, 1030.8 476.0 C 1031.4 472.7, 1031.8 469.3, 1032.1 466.0 C 1032.4 462.7, 1032.6 459.3, 1032.5 456.0 C 1032.4 452.7, 1032.1 449.3, 1031.5 446.0 C 1031.0 442.7, 1030.2 439.3, 1029.1 436.0 C 1028.0 432.7, 1026.6 429.3, 1024.9 426.0 C 1023.3 422.8, 1021.3 419.6, 1019.2 416.5 C 1017.2 413.4, 1015.0 410.7, 1012.5 407.6 C 1010.1 404.5, 1007.4 401.2, 1004.6 398.0 C 1001.8 394.8, 998.6 391.3, 995.7 388.2 C 992.9 385.1, 990.3 382.1, 987.5 379.3 C 984.8 376.5, 982.1 374.1, 979.3 371.5 C 976.5 368.9, 973.7 366.4, 970.7 363.6 C 967.6 360.9, 964.3 357.8, 961.0 354.9 C 957.7 352.0, 954.3 349.1, 951.0 346.4 C 947.7 343.7, 944.3 341.0, 941.0 338.4 C 937.7 335.8, 934.3 333.3, 931.0 330.9 C 927.7 328.4, 924.3 326.2, 921.0 324.0 C 917.7 321.7, 914.3 319.5, 911.0 317.4 C 907.7 315.3, 904.3 313.3, 901.0 311.4 C 897.7 309.4, 894.3 307.6, 891.0 305.8 C 887.7 304.0, 884.3 302.2, 881.0 300.6 C 877.7 299.0, 874.3 297.5, 871.0 296.0 C 867.7 294.6, 864.3 293.2, 861.0 291.9 C 857.7 290.5, 854.3 289.3, 851.0 288.1 C 847.7 287.0, 844.3 285.9, 841.0 284.9 C 837.7 283.9, 834.3 283.0, 831.0 282.0 C 827.7 281.1, 824.3 280.0, 821.0 279.3 C 817.7 278.5, 814.3 278.1, 811.0 277.5 C 807.7 277.0, 804.3 276.5, 801.0 276.0 C 797.7 275.6, 794.3 275.1, 791.0 274.8 C 787.7 274.4, 784.3 274.2, 781.0 274.1 C 777.7 274.0, 774.3 274.0, 771.0 274.0 C 767.7 274.0, 764.3 274.0, 761.0 274.0 C 757.7 274.0, 754.3 274.0, 751.0 274.0 C 747.7 274.0, 743.7 274.1, 741.0 274.1 C 738.3 274.2, 737.7 274.3, 735.0 274.5 Z" fill="#ff3b12" fill-rule="evenodd"></path><style>@media (prefers-color-scheme: light) { :root { filter: none; } }
@media (prefers-color-scheme: dark) { :root { filter: none; } }
</style></svg>